<mxfile host="65bd71144e">
    <diagram id="GqEjZYX9ZaJlJ4JGxs04" name="Page-1">
        <mxGraphModel dx="3142" dy="1743" grid="1" gridSize="10" guides="1" tooltips="1" connect="1" arrows="1" fold="1" page="1" pageScale="1" pageWidth="827" pageHeight="1169" math="0" shadow="0">
            <root>
                <mxCell id="0"/>
                <mxCell id="1" parent="0"/>
                <mxCell id="293" value="" style="html=1;dropTarget=0;fontSize=13;align=center;spacing=3.8;strokeColor=#5e5e5e;strokeOpacity=100;rounded=1;absoluteArcSize=1;arcSize=9;strokeWidth=2.3;container=1;collapsible=0;" parent="1" vertex="1">
                    <mxGeometry x="-1300" y="-950" width="2220" height="920" as="geometry"/>
                </mxCell>
                <UserObject label="AmazonWebServices" lucidchartObjectId="JzQ.lzjoDw~8" id="294">
                    <mxCell style="html=1;overflow=block;blockSpacing=1;whiteSpace=wrap;fontSize=16.7;fontColor=#333333;fontStyle=1;align=center;spacing=0;fillColor=#ffffff;strokeWidth=1.5;strokeColor=none;" parent="293" vertex="1">
                        <mxGeometry width="431.66666666666663" height="42.99065420560748" as="geometry"/>
                    </mxCell>
                </UserObject>
                <mxCell id="295" value="" style="shape=component;jettyWidth=8;jettyHeight=4;" parent="293" vertex="1">
                    <mxGeometry x="1" width="15" height="15" relative="1" as="geometry">
                        <mxPoint x="-20" y="5" as="offset"/>
                    </mxGeometry>
                </mxCell>
                <mxCell id="64" value="" style="html=1;dropTarget=0;fontSize=13;align=center;spacing=3.8;strokeColor=#5e5e5e;strokeOpacity=100;rounded=1;absoluteArcSize=1;arcSize=9;strokeWidth=2.3;" parent="1" vertex="1">
                    <mxGeometry x="-1215" y="-829" width="585" height="574" as="geometry"/>
                </mxCell>
                <mxCell id="65" value="" style="shape=component;jettyWidth=8;jettyHeight=4;" parent="64" vertex="1">
                    <mxGeometry x="1" width="15" height="15" relative="1" as="geometry">
                        <mxPoint x="-20" y="5" as="offset"/>
                    </mxGeometry>
                </mxCell>
                <mxCell id="66" value="" style="html=1;dropTarget=0;fontSize=13;align=center;spacing=3.8;strokeColor=#5e5e5e;strokeOpacity=100;rounded=1;absoluteArcSize=1;arcSize=9;strokeWidth=2.3;" parent="1" vertex="1">
                    <mxGeometry x="-1140" y="-737" width="465" height="302" as="geometry"/>
                </mxCell>
                <mxCell id="67" value="" style="shape=component;jettyWidth=8;jettyHeight=4;" parent="66" vertex="1">
                    <mxGeometry x="1" width="15" height="15" relative="1" as="geometry">
                        <mxPoint x="-20" y="5" as="offset"/>
                    </mxGeometry>
                </mxCell>
                <mxCell id="68" value="" style="html=1;dropTarget=0;fontSize=13;align=center;spacing=3.8;strokeColor=#5e5e5e;strokeOpacity=100;rounded=1;absoluteArcSize=1;arcSize=9;strokeWidth=2.3;" parent="1" vertex="1">
                    <mxGeometry x="-520" y="-825" width="1420" height="725" as="geometry"/>
                </mxCell>
                <mxCell id="69" value="" style="shape=component;jettyWidth=8;jettyHeight=4;" parent="68" vertex="1">
                    <mxGeometry x="1" width="15" height="15" relative="1" as="geometry">
                        <mxPoint x="-20" y="5" as="offset"/>
                    </mxGeometry>
                </mxCell>
                <mxCell id="70" value="" style="html=1;dropTarget=0;fontSize=13;align=center;spacing=3.8;strokeColor=#5e5e5e;strokeOpacity=100;rounded=1;absoluteArcSize=1;arcSize=9;strokeWidth=2.3;" parent="1" vertex="1">
                    <mxGeometry x="-172.5" y="-735" width="632.5" height="330" as="geometry"/>
                </mxCell>
                <mxCell id="71" value="" style="shape=component;jettyWidth=8;jettyHeight=4;" parent="70" vertex="1">
                    <mxGeometry x="1" width="15" height="15" relative="1" as="geometry">
                        <mxPoint x="-20" y="5" as="offset"/>
                    </mxGeometry>
                </mxCell>
                <UserObject label="&lt;div style=&quot;display: flex; justify-content: center; text-align: center; align-items: baseline; font-size: 0; line-height: 1.25;margin-top: -2px;&quot;&gt;&lt;span&gt;&lt;span style=&quot;font-size:16.7px;color:#333333;&quot;&gt;PSQL API&#10;&lt;/span&gt;&lt;/span&gt;&lt;/div&gt;&lt;div style=&quot;display: flex; justify-content: center; text-align: center; align-items: baseline; font-size: 0; line-height: 1.25;margin-top: -2px;&quot;&gt;&lt;span&gt;&lt;span style=&quot;font-size:16.7px;color:#333333;&quot;&gt;PORT 5432&lt;/span&gt;&lt;/span&gt;&lt;/div&gt;" lucidchartObjectId="9TQ.UFUaZxLk" id="72">
                    <mxCell style="html=1;overflow=block;blockSpacing=1;whiteSpace=wrap;fontSize=13;spacing=0;fillColor=#ffffff;strokeWidth=1.5;strokeColor=none;" parent="1" vertex="1">
                        <mxGeometry x="421" y="-260.5" width="180" height="45" as="geometry"/>
                    </mxCell>
                </UserObject>
                <UserObject label="&lt;div style=&quot;display: flex; justify-content: center; text-align: center; align-items: baseline; font-size: 0; line-height: 1.25;margin-top: -2px;&quot;&gt;&lt;span&gt;&lt;span style=&quot;font-size:16.7px;color:#333333;&quot;&gt;SSL/HHTPS&#10;&lt;/span&gt;&lt;/span&gt;&lt;/div&gt;&lt;div style=&quot;display: flex; justify-content: center; text-align: center; align-items: baseline; font-size: 0; line-height: 1.25;margin-top: -2px;&quot;&gt;&lt;span&gt;&lt;span style=&quot;font-size:16.7px;color:#333333;&quot;&gt;API REST&lt;/span&gt;&lt;/span&gt;&lt;/div&gt;" lucidchartObjectId="ERQ.FartYt-O" id="73">
                    <mxCell style="html=1;overflow=block;blockSpacing=1;whiteSpace=wrap;fontSize=13;spacing=0;fillColor=#ffffff;strokeWidth=1.5;strokeColor=none;" parent="1" vertex="1">
                        <mxGeometry x="-645" y="-565" width="180" height="45" as="geometry"/>
                    </mxCell>
                </UserObject>
                <UserObject label="GeoMeeter AWS S3&amp;nbsp;" lucidchartObjectId="0mQ.VnrTeDY5" id="75">
                    <mxCell style="html=1;overflow=block;blockSpacing=1;whiteSpace=wrap;fontSize=25;fontColor=#333333;fontStyle=1;align=center;spacing=0;fillColor=#ffffff;strokeWidth=1.5;strokeColor=none;" parent="1" vertex="1">
                        <mxGeometry x="-1005" y="-825" width="180" height="55" as="geometry"/>
                    </mxCell>
                </UserObject>
                <UserObject label="[Container Docker]" lucidchartObjectId="BvQ.S7S5D1Hz" id="76">
                    <mxCell style="html=1;overflow=block;blockSpacing=1;whiteSpace=wrap;fontSize=16.7;fontColor=#333333;fontStyle=1;align=center;spacing=0;fillColor=#ffffff;strokeWidth=1.5;strokeColor=none;" parent="1" vertex="1">
                        <mxGeometry x="-173" y="-735" width="180" height="45" as="geometry"/>
                    </mxCell>
                </UserObject>
                <mxCell id="77" value="" style="html=1;dropTarget=0;fontSize=13;align=center;spacing=3.8;strokeColor=#5e5e5e;strokeOpacity=100;rounded=1;absoluteArcSize=1;arcSize=9;strokeWidth=2.3;" parent="1" vertex="1">
                    <mxGeometry x="97" y="-705" width="303" height="270" as="geometry"/>
                </mxCell>
                <mxCell id="78" value="" style="shape=component;jettyWidth=8;jettyHeight=4;" parent="77" vertex="1">
                    <mxGeometry x="1" width="15" height="15" relative="1" as="geometry">
                        <mxPoint x="-20" y="5" as="offset"/>
                    </mxGeometry>
                </mxCell>
                <UserObject label="&lt;div style=&quot;display: flex; justify-content: center; text-align: center; align-items: baseline; font-size: 0; line-height: 1.25;margin-top: -2px;&quot;&gt;&lt;span&gt;&lt;span style=&quot;font-size:25px;color:#333333;font-weight: bold;&quot;&gt;[Backend]&#10;&lt;/span&gt;&lt;/span&gt;&lt;/div&gt;&lt;div style=&quot;display: flex; justify-content: center; text-align: center; align-items: baseline; font-size: 0; line-height: 1.25;margin-top: -2px;&quot;&gt;&lt;span&gt;&lt;span style=&quot;font-size:25px;color:#333333;font-weight: bold;&quot;&gt;AWS EC2&lt;/span&gt;&lt;/span&gt;&lt;/div&gt;" lucidchartObjectId="2wQ.rxDoDfN9" id="79">
                    <mxCell style="html=1;overflow=block;blockSpacing=1;whiteSpace=wrap;fontSize=13;spacing=0;fillColor=#ffffff;strokeWidth=1.5;strokeColor=none;" parent="1" vertex="1">
                        <mxGeometry x="7" y="-825" width="180" height="60" as="geometry"/>
                    </mxCell>
                </UserObject>
                <UserObject label="Web API" lucidchartObjectId="cxQ.P7ARJ7Gp" id="80">
                    <mxCell style="html=1;overflow=block;blockSpacing=1;whiteSpace=wrap;fontSize=16.7;fontColor=#333333;fontStyle=1;align=center;spacing=0;fillColor=#ffffff;strokeWidth=1.5;strokeColor=none;" parent="1" vertex="1">
                        <mxGeometry x="157" y="-705" width="180" height="45" as="geometry"/>
                    </mxCell>
                </UserObject>
                <UserObject label="Call workers" lucidchartObjectId="xmQ.o6H7XOpQ" id="81">
                    <mxCell style="html=1;overflow=block;blockSpacing=1;whiteSpace=wrap;shape=component;align=left;spacingLeft=36;fontSize=16.7;fontColor=#FFFFFF;spacing=0;strokeColor=#5e5e5e;strokeOpacity=100;rounded=1;absoluteArcSize=1;arcSize=9;strokeWidth=2.3;" parent="1" vertex="1">
                        <mxGeometry x="112" y="-547" width="120" height="90" as="geometry"/>
                    </mxCell>
                </UserObject>
                <UserObject label="Routers" lucidchartObjectId="LvQ.SK1kYf38" id="83">
                    <mxCell style="html=1;overflow=block;blockSpacing=1;whiteSpace=wrap;shape=component;align=left;spacingLeft=36;fontSize=16.7;fontColor=#FFFFFF;spacing=0;strokeColor=#5e5e5e;strokeOpacity=100;rounded=1;absoluteArcSize=1;arcSize=9;strokeWidth=2.3;" parent="1" vertex="1">
                        <mxGeometry x="112" y="-655" width="120" height="90" as="geometry"/>
                    </mxCell>
                </UserObject>
                <UserObject label="Nginx &#10;reverse proxy" lucidchartObjectId="QDQ.MSSu0BSL" id="92">
                    <mxCell style="html=1;overflow=block;blockSpacing=1;whiteSpace=wrap;shape=component;align=left;spacingLeft=36;fontSize=16.7;fontColor=#FFFFFF;spacing=0;strokeColor=#5e5e5e;strokeOpacity=100;rounded=1;absoluteArcSize=1;arcSize=9;strokeWidth=2.3;" parent="1" vertex="1">
                        <mxGeometry x="-113" y="-608" width="149" height="87" as="geometry"/>
                    </mxCell>
                </UserObject>
                <UserObject label="" lucidchartObjectId="nFQ.mH_b9b4w" id="93">
                    <mxCell style="html=1;overflow=block;blockSpacing=1;whiteSpace=wrap;fontSize=13;align=center;spacing=3.8;strokeColor=#5e5e5e;strokeOpacity=100;rounded=1;absoluteArcSize=1;arcSize=9;strokeWidth=2.3;fontColor=#FFFFFF;" parent="1" vertex="1">
                        <mxGeometry x="-188" y="-580" width="30" height="30" as="geometry"/>
                    </mxCell>
                </UserObject>
                <mxCell id="94" value="" style="html=1;dropTarget=0;fontSize=13;align=center;spacing=3.8;strokeColor=#5e5e5e;strokeOpacity=100;rounded=1;absoluteArcSize=1;arcSize=9;strokeWidth=2.3;container=1;collapsible=0;" parent="1" vertex="1">
                    <mxGeometry x="210" y="-350" width="225" height="209" as="geometry"/>
                </mxCell>
                <UserObject label="[Container Docker]" lucidchartObjectId="EGQ.u1LITXUu" id="95">
                    <mxCell style="html=1;overflow=block;blockSpacing=1;whiteSpace=wrap;fontSize=16.7;fontColor=#333333;fontStyle=1;align=center;spacing=0;fillColor=#ffffff;strokeWidth=1.5;strokeColor=none;" parent="94" vertex="1">
                        <mxGeometry x="22" y="14" width="180" height="45" as="geometry"/>
                    </mxCell>
                </UserObject>
                <UserObject label="PostgreSQL Database +PostGis" lucidchartObjectId="VoQ.apwIIPWM" id="96">
                    <mxCell style="shape=cylinder3;whiteSpace=wrap;html=1;boundedLbl=1;backgroundOutline=1;size=15;fontFamily=Helvetica;fontSize=16.7;fontColor=#FFFFFF;align=center;strokeColor=#5e5e5e;strokeWidth=2.3;fillColor=#232f3e;" parent="94" vertex="1">
                        <mxGeometry x="77.5" y="70" width="69" height="91" as="geometry"/>
                    </mxCell>
                </UserObject>
                <mxCell id="97" value="" style="shape=component;jettyWidth=8;jettyHeight=4;" parent="94" vertex="1">
                    <mxGeometry x="1" width="15" height="15" relative="1" as="geometry">
                        <mxPoint x="-20" y="5" as="offset"/>
                    </mxGeometry>
                </mxCell>
                <UserObject label="Map Leaflet-Vue" lucidchartObjectId="rHQ._YY6tu1O" id="98">
                    <mxCell style="html=1;overflow=block;blockSpacing=1;whiteSpace=wrap;shape=component;align=left;spacingLeft=36;fontSize=16.7;fontColor=#FFFFFF;spacing=0;strokeColor=#5e5e5e;strokeOpacity=100;rounded=1;absoluteArcSize=1;arcSize=9;strokeWidth=2.3;" parent="1" vertex="1">
                        <mxGeometry x="-960" y="-675" width="120" height="90" as="geometry"/>
                    </mxCell>
                </UserObject>
                <UserObject label="" lucidchartObjectId="xLQ.PSGera.4" id="112">
                    <mxCell style="html=1;overflow=block;blockSpacing=1;whiteSpace=wrap;fontSize=13;align=center;spacing=3.8;strokeColor=#5e5e5e;strokeOpacity=100;rounded=1;absoluteArcSize=1;arcSize=9;strokeWidth=2.3;" parent="1" vertex="1">
                        <mxGeometry x="190" y="-270" width="30" height="30" as="geometry"/>
                    </mxCell>
                </UserObject>
                <UserObject label="" lucidchartObjectId="OLQ.SMa_Be_0" id="117">
                    <mxCell style="html=1;overflow=block;blockSpacing=1;whiteSpace=wrap;fontSize=13;align=center;spacing=3.8;strokeColor=#5e5e5e;strokeOpacity=100;rounded=1;absoluteArcSize=1;arcSize=9;strokeWidth=2.3;" parent="1" vertex="1">
                        <mxGeometry x="-1065" y="-270" width="30" height="30" as="geometry"/>
                    </mxCell>
                </UserObject>
                <UserObject label="" lucidchartObjectId="7MQ.v_up57Re" id="129">
                    <mxCell style="html=1;overflow=block;blockSpacing=1;whiteSpace=wrap;fontSize=13;align=center;spacing=3.8;strokeColor=#5e5e5e;strokeOpacity=100;rounded=1;absoluteArcSize=1;arcSize=9;strokeWidth=2.3;fontColor=#FFFFFF;" parent="1" vertex="1">
                        <mxGeometry x="-645" y="-514" width="30" height="30" as="geometry"/>
                    </mxCell>
                </UserObject>
                <UserObject label="Login or Register" lucidchartObjectId="tQQ.5gMyglQL" id="143">
                    <mxCell style="html=1;overflow=block;blockSpacing=1;whiteSpace=wrap;shape=component;align=left;spacingLeft=36;fontSize=16.7;fontColor=#FFFFFF;spacing=0;strokeColor=#5e5e5e;strokeOpacity=100;rounded=1;absoluteArcSize=1;arcSize=9;strokeWidth=2.3;" parent="1" vertex="1">
                        <mxGeometry x="-1110" y="-562" width="120" height="90" as="geometry"/>
                    </mxCell>
                </UserObject>
                <UserObject label="List Pings, Users y Locations" lucidchartObjectId="EQQ.A3JN0USV" id="144">
                    <mxCell style="html=1;overflow=block;blockSpacing=1;whiteSpace=wrap;shape=component;align=left;spacingLeft=36;fontSize=16.7;fontColor=#FFFFFF;spacing=0;strokeColor=#5e5e5e;strokeOpacity=100;rounded=1;absoluteArcSize=1;arcSize=9;strokeWidth=2.3;" parent="1" vertex="1">
                        <mxGeometry x="-817" y="-675" width="120" height="90" as="geometry"/>
                    </mxCell>
                </UserObject>
                <mxCell id="401" style="edgeStyle=none;rounded=0;html=1;exitX=0.75;exitY=1;exitDx=0;exitDy=0;entryX=0.126;entryY=0.501;entryDx=0;entryDy=0;endArrow=none;endFill=0;entryPerimeter=0;" edge="1" parent="1" source="145" target="143">
                    <mxGeometry relative="1" as="geometry">
                        <Array as="points">
                            <mxPoint x="-1132" y="-535"/>
                            <mxPoint x="-1132" y="-517"/>
                        </Array>
                    </mxGeometry>
                </mxCell>
                <mxCell id="404" style="edgeStyle=none;rounded=0;html=1;exitX=0.75;exitY=0;exitDx=0;exitDy=0;entryX=0.128;entryY=0.503;entryDx=0;entryDy=0;entryPerimeter=0;endArrow=none;endFill=0;" edge="1" parent="1" source="145" target="189">
                    <mxGeometry relative="1" as="geometry">
                        <Array as="points">
                            <mxPoint x="-1132" y="-630"/>
                        </Array>
                    </mxGeometry>
                </mxCell>
                <UserObject label="" lucidchartObjectId="RQQ.1Tx4FJ7h" id="145">
                    <mxCell style="html=1;overflow=block;blockSpacing=1;whiteSpace=wrap;fontSize=13;align=center;spacing=3.8;strokeColor=#5e5e5e;strokeOpacity=100;rounded=1;absoluteArcSize=1;arcSize=9;strokeWidth=2.3;fontColor=#FFFFFF;" parent="1" vertex="1">
                        <mxGeometry x="-1155" y="-600" width="30" height="30" as="geometry"/>
                    </mxCell>
                </UserObject>
                <UserObject label="[Vue Dashboard Front]" lucidchartObjectId="iSQ.8A~Tfa6g" id="146">
                    <mxCell style="html=1;overflow=block;blockSpacing=1;whiteSpace=wrap;fontSize=16.7;fontColor=#333333;fontStyle=1;align=center;spacing=0;fillColor=#ffffff;strokeWidth=1.5;strokeColor=none;" parent="1" vertex="1">
                        <mxGeometry x="-1132" y="-735" width="222" height="45" as="geometry"/>
                    </mxCell>
                </UserObject>
                <UserObject label="" lucidchartObjectId="MSQ.1bBkWNoG" id="147">
                    <mxCell style="html=1;overflow=block;blockSpacing=1;whiteSpace=wrap;fontSize=13;align=center;spacing=3.8;strokeColor=#5e5e5e;strokeOpacity=100;rounded=1;absoluteArcSize=1;arcSize=9;strokeWidth=2.3;" parent="1" vertex="1">
                        <mxGeometry x="232" y="-420" width="30" height="30" as="geometry"/>
                    </mxCell>
                </UserObject>
                <UserObject label="" lucidchartObjectId="kUQ.27DKTuAM" id="149">
                    <mxCell style="html=1;overflow=block;blockSpacing=1;whiteSpace=wrap;fontSize=13;align=center;spacing=3.8;strokeColor=#5e5e5e;strokeOpacity=100;rounded=1;absoluteArcSize=1;arcSize=9;strokeWidth=2.3;" parent="1" vertex="1">
                        <mxGeometry x="-1065" y="-450" width="30" height="30" as="geometry"/>
                    </mxCell>
                </UserObject>
                <UserObject label="Mail Service" lucidchartObjectId="TYQ.1-TCLOCC" id="159">
                    <mxCell style="html=1;overflow=block;blockSpacing=1;whiteSpace=wrap;shape=component;align=left;spacingLeft=36;fontSize=16.7;fontColor=#FFFFFF;spacing=0;strokeColor=#5e5e5e;strokeOpacity=100;rounded=1;absoluteArcSize=1;arcSize=9;strokeWidth=2.3;" parent="1" vertex="1">
                        <mxGeometry x="251" y="-550" width="120" height="90" as="geometry"/>
                    </mxCell>
                </UserObject>
                <UserObject label="Send Ping" lucidchartObjectId="BZQ.7yFAApc7" id="162">
                    <mxCell style="html=1;overflow=block;blockSpacing=1;whiteSpace=wrap;shape=component;align=left;spacingLeft=36;fontSize=16.7;fontColor=#FFFFFF;spacing=0;strokeColor=#5e5e5e;strokeOpacity=100;rounded=1;absoluteArcSize=1;arcSize=9;strokeWidth=2.3;" parent="1" vertex="1">
                        <mxGeometry x="-817" y="-562" width="120" height="90" as="geometry"/>
                    </mxCell>
                </UserObject>
                <UserObject label="" lucidchartObjectId="F0Q.Sfm7eGPp" id="163">
                    <mxCell style="html=1;overflow=block;blockSpacing=1;whiteSpace=wrap;fontSize=13;align=center;spacing=3.8;strokeColor=#5e5e5e;strokeOpacity=100;rounded=1;absoluteArcSize=1;arcSize=9;strokeWidth=2.3;fontColor=#FFFFFF;" parent="1" vertex="1">
                        <mxGeometry x="-690" y="-480" width="30" height="30" as="geometry"/>
                    </mxCell>
                </UserObject>
                <UserObject label="Set Location" lucidchartObjectId="U4Q.wYum8OUZ" id="175">
                    <mxCell style="html=1;overflow=block;blockSpacing=1;whiteSpace=wrap;shape=component;align=left;spacingLeft=36;fontSize=16.7;fontColor=#FFFFFF;spacing=0;strokeColor=#5e5e5e;strokeOpacity=100;rounded=1;absoluteArcSize=1;arcSize=9;strokeWidth=2.3;" parent="1" vertex="1">
                        <mxGeometry x="-960" y="-562" width="120" height="90" as="geometry"/>
                    </mxCell>
                </UserObject>
                <mxCell id="206" value="" style="html=1;dropTarget=0;fontSize=13;align=center;spacing=3.8;strokeColor=#5e5e5e;strokeOpacity=100;rounded=1;absoluteArcSize=1;arcSize=9;strokeWidth=2.3;" parent="1" vertex="1">
                    <mxGeometry x="-465" y="-729.5" width="265" height="369.5" as="geometry"/>
                </mxCell>
                <mxCell id="207" value="" style="shape=component;jettyWidth=8;jettyHeight=4;" parent="206" vertex="1">
                    <mxGeometry x="1" width="15" height="15" relative="1" as="geometry">
                        <mxPoint x="-20" y="5" as="offset"/>
                    </mxGeometry>
                </mxCell>
                <UserObject label="Local proxy" lucidchartObjectId="C-Q.cqZwOiHa" id="187">
                    <mxCell style="html=1;overflow=block;blockSpacing=1;whiteSpace=wrap;fontSize=16.7;fontColor=#333333;align=center;spacing=0;fillColor=#ffffff;strokeWidth=1.5;strokeColor=none;" parent="1" vertex="1">
                        <mxGeometry x="-1050" y="-330" width="58" height="45" as="geometry"/>
                    </mxCell>
                </UserObject>
                <UserObject label="Display" lucidchartObjectId="1mR.Dg1fzhjd" id="189">
                    <mxCell style="html=1;overflow=block;blockSpacing=1;whiteSpace=wrap;shape=component;align=left;spacingLeft=36;fontSize=16.7;fontColor=#FFFFFF;spacing=0;strokeColor=#5e5e5e;strokeOpacity=100;rounded=1;absoluteArcSize=1;arcSize=9;strokeWidth=2.3;" parent="1" vertex="1">
                        <mxGeometry x="-1110" y="-675" width="120" height="90" as="geometry"/>
                    </mxCell>
                </UserObject>
                <mxCell id="191" value="" style="rounded=0;orthogonalLoop=1;jettySize=auto;html=1;endArrow=none;endFill=0;sketch=0;targetPerimeterSpacing=0;fontSize=10;exitX=1;exitY=0.5;exitDx=0;exitDy=0;startArrow=none;" parent="1" source="200" target="192" edge="1">
                    <mxGeometry relative="1" as="geometry">
                        <mxPoint x="-310" y="-412" as="sourcePoint"/>
                    </mxGeometry>
                </mxCell>
                <mxCell id="192" value="" style="ellipse;whiteSpace=wrap;html=1;align=center;aspect=fixed;resizable=0;points=[];outlineConnect=0;sketch=0;fontSize=10;" parent="1" vertex="1">
                    <mxGeometry x="-330" y="-482" width="10" height="10" as="geometry"/>
                </mxCell>
                <mxCell id="193" value="Token Auth" style="shape=component;align=left;spacingLeft=36;rounded=0;shadow=0;comic=0;labelBackgroundColor=none;strokeWidth=1;fontFamily=Verdana;fontSize=12;html=1;" parent="1" vertex="1">
                    <mxGeometry x="251" y="-641" width="120" height="60" as="geometry"/>
                </mxCell>
                <mxCell id="197" value="" style="endArrow=none;html=1;rounded=0;fontSize=10;entryX=0;entryY=0.3;entryDx=0;entryDy=0;startArrow=none;exitX=1;exitY=0.25;exitDx=0;exitDy=0;" parent="1" source="119" target="200" edge="1">
                    <mxGeometry width="50" height="50" relative="1" as="geometry">
                        <mxPoint x="-465" y="-495.2857142857142" as="sourcePoint"/>
                        <mxPoint x="-580" y="-517" as="targetPoint"/>
                    </mxGeometry>
                </mxCell>
                <mxCell id="199" value="" style="endArrow=none;html=1;rounded=0;exitX=0.5;exitY=0;exitDx=0;exitDy=0;entryX=0.5;entryY=1;entryDx=0;entryDy=0;" parent="1" source="298" target="200" edge="1">
                    <mxGeometry width="50" height="50" relative="1" as="geometry">
                        <mxPoint x="-580" y="-395" as="sourcePoint"/>
                        <mxPoint x="-530" y="-445" as="targetPoint"/>
                        <Array as="points">
                            <mxPoint x="-233" y="-410"/>
                            <mxPoint x="-290" y="-410"/>
                            <mxPoint x="-350" y="-410"/>
                        </Array>
                    </mxGeometry>
                </mxCell>
                <mxCell id="200" value="API Gateway" style="shape=component;align=left;spacingLeft=36;rounded=0;shadow=0;comic=0;labelBackgroundColor=none;strokeWidth=1;fontFamily=Verdana;fontSize=12;html=1;" parent="1" vertex="1">
                    <mxGeometry x="-410" y="-507" width="120" height="60" as="geometry"/>
                </mxCell>
                <UserObject label="" lucidchartObjectId="jMQ.a4yrlkNo" id="119">
                    <mxCell style="html=1;overflow=block;blockSpacing=1;whiteSpace=wrap;fontSize=13;align=center;spacing=3.8;strokeColor=#5e5e5e;strokeOpacity=100;rounded=1;absoluteArcSize=1;arcSize=9;strokeWidth=2.3;" parent="1" vertex="1">
                        <mxGeometry x="-481" y="-514" width="30" height="30" as="geometry"/>
                    </mxCell>
                </UserObject>
                <mxCell id="405" style="edgeStyle=none;rounded=0;html=1;exitX=0;exitY=0.5;exitDx=0;exitDy=0;entryX=1;entryY=0.5;entryDx=0;entryDy=0;endArrow=none;endFill=0;" edge="1" parent="1" source="209" target="200">
                    <mxGeometry relative="1" as="geometry"/>
                </mxCell>
                <mxCell id="406" style="edgeStyle=none;rounded=0;html=1;exitX=0.75;exitY=0;exitDx=0;exitDy=0;entryX=0;entryY=0.5;entryDx=0;entryDy=0;endArrow=none;endFill=0;" edge="1" parent="1" source="209" target="93">
                    <mxGeometry relative="1" as="geometry">
                        <Array as="points">
                            <mxPoint x="-195" y="-565"/>
                        </Array>
                    </mxGeometry>
                </mxCell>
                <UserObject label="" lucidchartObjectId="nFQ.mH_b9b4w" id="209">
                    <mxCell style="html=1;overflow=block;blockSpacing=1;whiteSpace=wrap;fontSize=13;align=center;spacing=3.8;strokeColor=#5e5e5e;strokeOpacity=100;rounded=1;absoluteArcSize=1;arcSize=9;strokeWidth=2.3;fontColor=#FFFFFF;" parent="1" vertex="1">
                        <mxGeometry x="-218" y="-492" width="30" height="30" as="geometry"/>
                    </mxCell>
                </UserObject>
                <mxCell id="214" value="" style="shape=umlActor;verticalLabelPosition=bottom;verticalAlign=top;html=1;outlineConnect=0;fontColor=#FFFFFF;strokeColor=#FFFFFF;" parent="1" vertex="1">
                    <mxGeometry x="-1410" y="-585" width="30" height="60" as="geometry"/>
                </mxCell>
                <mxCell id="220" value="" style="html=1;dropTarget=0;fontSize=13;align=center;spacing=3.8;strokeColor=#5e5e5e;strokeOpacity=100;rounded=1;absoluteArcSize=1;arcSize=9;strokeWidth=2.3;container=1;collapsible=0;" parent="1" vertex="1">
                    <mxGeometry x="-435.5" y="-1150" width="195" height="165" as="geometry"/>
                </mxCell>
                <UserObject label="External API" lucidchartObjectId="JzQ.lzjoDw~8" id="221">
                    <mxCell style="html=1;overflow=block;blockSpacing=1;whiteSpace=wrap;fontSize=16.7;fontColor=#333333;fontStyle=1;align=center;spacing=0;fillColor=#ffffff;strokeWidth=1.5;strokeColor=none;" parent="220" vertex="1">
                        <mxGeometry width="180" height="45" as="geometry"/>
                    </mxCell>
                </UserObject>
                <mxCell id="222" value="" style="shape=component;jettyWidth=8;jettyHeight=4;" parent="220" vertex="1">
                    <mxGeometry x="1" width="15" height="15" relative="1" as="geometry">
                        <mxPoint x="-20" y="5" as="offset"/>
                    </mxGeometry>
                </mxCell>
                <UserObject label="" lucidchartObjectId="qXQ.MwzUgVT0" id="226">
                    <mxCell style="html=1;overflow=block;blockSpacing=1;whiteSpace=wrap;fontSize=13;align=center;spacing=3.8;strokeColor=#5e5e5e;strokeOpacity=100;rounded=1;absoluteArcSize=1;arcSize=9;strokeWidth=2.3;" parent="1" vertex="1">
                        <mxGeometry x="-333" y="-740" width="30" height="30" as="geometry"/>
                    </mxCell>
                </UserObject>
                <UserObject label="" lucidchartObjectId="qXQ.MwzUgVT0" id="228">
                    <mxCell style="html=1;overflow=block;blockSpacing=1;whiteSpace=wrap;fontSize=13;align=center;spacing=3.8;strokeColor=#5e5e5e;strokeOpacity=100;rounded=1;absoluteArcSize=1;arcSize=9;strokeWidth=2.3;" parent="1" vertex="1">
                        <mxGeometry x="-333" y="-1000" width="30" height="30" as="geometry"/>
                    </mxCell>
                </UserObject>
                <mxCell id="231" value="" style="rounded=0;orthogonalLoop=1;jettySize=auto;html=1;endArrow=none;endFill=0;sketch=0;sourcePerimeterSpacing=0;targetPerimeterSpacing=0;fontColor=#FFFFFF;exitX=0.5;exitY=0;exitDx=0;exitDy=0;" parent="1" source="226" target="233" edge="1">
                    <mxGeometry relative="1" as="geometry">
                        <mxPoint x="-263" y="-855" as="sourcePoint"/>
                    </mxGeometry>
                </mxCell>
                <mxCell id="232" value="" style="rounded=0;orthogonalLoop=1;jettySize=auto;html=1;endArrow=halfCircle;endFill=0;entryX=0.5;entryY=0.5;endSize=6;strokeWidth=1;sketch=0;fontColor=#FFFFFF;exitX=0.5;exitY=1;exitDx=0;exitDy=0;" parent="1" source="228" target="233" edge="1">
                    <mxGeometry relative="1" as="geometry">
                        <mxPoint x="-215" y="-925" as="sourcePoint"/>
                    </mxGeometry>
                </mxCell>
                <mxCell id="233" value="" style="ellipse;whiteSpace=wrap;html=1;align=center;aspect=fixed;resizable=0;points=[];outlineConnect=0;sketch=0;fontColor=#FFFFFF;strokeColor=#FFFFFF;" parent="1" vertex="1">
                    <mxGeometry x="-323" y="-930" width="10" height="10" as="geometry"/>
                </mxCell>
                <mxCell id="241" value="" style="rounded=0;orthogonalLoop=1;jettySize=auto;html=1;endArrow=none;endFill=0;sketch=0;targetPerimeterSpacing=0;fontColor=#FFFFFF;startArrow=none;" parent="1" edge="1">
                    <mxGeometry relative="1" as="geometry">
                        <mxPoint x="-85" y="-370" as="sourcePoint"/>
                        <mxPoint x="-85" y="-370" as="targetPoint"/>
                    </mxGeometry>
                </mxCell>
                <mxCell id="249" value="" style="rounded=0;orthogonalLoop=1;jettySize=auto;html=1;endArrow=none;endFill=0;sketch=0;sourcePerimeterSpacing=0;targetPerimeterSpacing=0;fontColor=#FFFFFF;exitX=0.5;exitY=1;exitDx=0;exitDy=0;" parent="1" source="117" target="251" edge="1">
                    <mxGeometry relative="1" as="geometry">
                        <mxPoint x="-1041" y="-41" as="sourcePoint"/>
                        <Array as="points">
                            <mxPoint x="-1050" y="-190"/>
                        </Array>
                    </mxGeometry>
                </mxCell>
                <mxCell id="250" value="" style="rounded=0;orthogonalLoop=1;jettySize=auto;html=1;endArrow=halfCircle;endFill=0;endSize=6;strokeWidth=1;sketch=0;fontColor=#FFFFFF;exitX=0;exitY=0.5;exitDx=0;exitDy=0;" parent="1" source="111" target="251" edge="1">
                    <mxGeometry relative="1" as="geometry">
                        <mxPoint x="-616" y="-264" as="sourcePoint"/>
                        <mxPoint x="-655" y="-187" as="targetPoint"/>
                    </mxGeometry>
                </mxCell>
                <mxCell id="251" value="" style="ellipse;whiteSpace=wrap;html=1;align=center;aspect=fixed;resizable=0;points=[];outlineConnect=0;sketch=0;fontColor=#FFFFFF;strokeColor=#FFFFFF;" parent="1" vertex="1">
                    <mxGeometry x="-670" y="-196" width="10" height="10" as="geometry"/>
                </mxCell>
                <mxCell id="258" value="" style="rounded=0;orthogonalLoop=1;jettySize=auto;html=1;endArrow=none;endFill=0;sketch=0;sourcePerimeterSpacing=0;targetPerimeterSpacing=0;fontColor=#FFFFFF;exitX=0.5;exitY=0;exitDx=0;exitDy=0;exitPerimeter=0;" parent="1" source="214" target="260" edge="1">
                    <mxGeometry relative="1" as="geometry">
                        <mxPoint x="-1190" y="-488" as="sourcePoint"/>
                    </mxGeometry>
                </mxCell>
                <mxCell id="259" value="" style="rounded=0;orthogonalLoop=1;jettySize=auto;html=1;endArrow=halfCircle;endFill=0;entryX=0.5;entryY=0.5;endSize=6;strokeWidth=1;sketch=0;fontColor=#FFFFFF;exitX=0;exitY=0.5;exitDx=0;exitDy=0;" parent="1" source="145" target="260" edge="1">
                    <mxGeometry relative="1" as="geometry">
                        <mxPoint x="-1150" y="-488" as="sourcePoint"/>
                        <Array as="points">
                            <mxPoint x="-1170" y="-585"/>
                        </Array>
                    </mxGeometry>
                </mxCell>
                <mxCell id="260" value="" style="ellipse;whiteSpace=wrap;html=1;align=center;aspect=fixed;resizable=0;points=[];outlineConnect=0;sketch=0;fontColor=#FFFFFF;strokeColor=#FFFFFF;" parent="1" vertex="1">
                    <mxGeometry x="-1250" y="-591" width="10" height="10" as="geometry"/>
                </mxCell>
                <mxCell id="261" value="" style="rounded=0;orthogonalLoop=1;jettySize=auto;html=1;endArrow=none;endFill=0;sketch=0;sourcePerimeterSpacing=0;targetPerimeterSpacing=0;fontColor=#FFFFFF;exitX=0;exitY=0.5;exitDx=0;exitDy=0;" parent="1" source="119" target="263" edge="1">
                    <mxGeometry relative="1" as="geometry">
                        <mxPoint x="-576" y="-445" as="sourcePoint"/>
                    </mxGeometry>
                </mxCell>
                <mxCell id="262" value="" style="rounded=0;orthogonalLoop=1;jettySize=auto;html=1;endArrow=halfCircle;endFill=0;entryX=0.5;entryY=0.5;endSize=6;strokeWidth=1;sketch=0;fontColor=#FFFFFF;exitX=1;exitY=0.5;exitDx=0;exitDy=0;" parent="1" source="129" target="263" edge="1">
                    <mxGeometry relative="1" as="geometry">
                        <mxPoint x="-536" y="-445" as="sourcePoint"/>
                    </mxGeometry>
                </mxCell>
                <mxCell id="263" value="" style="ellipse;whiteSpace=wrap;html=1;align=center;aspect=fixed;resizable=0;points=[];outlineConnect=0;sketch=0;fontColor=#FFFFFF;strokeColor=#FFFFFF;" parent="1" vertex="1">
                    <mxGeometry x="-560" y="-504" width="10" height="10" as="geometry"/>
                </mxCell>
                <mxCell id="276" value="" style="rounded=0;orthogonalLoop=1;jettySize=auto;html=1;endArrow=none;endFill=0;sketch=0;sourcePerimeterSpacing=0;targetPerimeterSpacing=0;fontColor=#FFFFFF;exitX=0.107;exitY=0.483;exitDx=0;exitDy=0;exitPerimeter=0;" parent="1" source="92" target="278" edge="1">
                    <mxGeometry relative="1" as="geometry">
                        <mxPoint x="-150" y="-565" as="sourcePoint"/>
                    </mxGeometry>
                </mxCell>
                <mxCell id="277" value="" style="rounded=0;orthogonalLoop=1;jettySize=auto;html=1;endArrow=halfCircle;endFill=0;entryX=0.5;entryY=0.5;endSize=6;strokeWidth=1;sketch=0;fontColor=#FFFFFF;exitX=1;exitY=0.5;exitDx=0;exitDy=0;" parent="1" source="93" target="278" edge="1">
                    <mxGeometry relative="1" as="geometry">
                        <mxPoint x="-110" y="-565" as="sourcePoint"/>
                    </mxGeometry>
                </mxCell>
                <mxCell id="278" value="" style="ellipse;whiteSpace=wrap;html=1;align=center;aspect=fixed;resizable=0;points=[];outlineConnect=0;sketch=0;fontColor=#FFFFFF;strokeColor=#FFFFFF;" parent="1" vertex="1">
                    <mxGeometry x="-135" y="-570" width="10" height="10" as="geometry"/>
                </mxCell>
                <mxCell id="279" value="" style="rounded=0;orthogonalLoop=1;jettySize=auto;html=1;endArrow=none;endFill=0;sketch=0;sourcePerimeterSpacing=0;targetPerimeterSpacing=0;fontColor=#FFFFFF;exitX=0.005;exitY=0.361;exitDx=0;exitDy=0;exitPerimeter=0;" parent="1" source="77" target="281" edge="1">
                    <mxGeometry relative="1" as="geometry">
                        <mxPoint x="50" y="-586" as="sourcePoint"/>
                    </mxGeometry>
                </mxCell>
                <mxCell id="280" value="" style="rounded=0;orthogonalLoop=1;jettySize=auto;html=1;endArrow=halfCircle;endFill=0;entryX=0.5;entryY=0.5;endSize=6;strokeWidth=1;sketch=0;fontColor=#FFFFFF;" parent="1" source="92" target="281" edge="1">
                    <mxGeometry relative="1" as="geometry">
                        <mxPoint x="90" y="-586" as="sourcePoint"/>
                    </mxGeometry>
                </mxCell>
                <mxCell id="281" value="" style="ellipse;whiteSpace=wrap;html=1;align=center;aspect=fixed;resizable=0;points=[];outlineConnect=0;sketch=0;fontColor=#FFFFFF;strokeColor=#FFFFFF;" parent="1" vertex="1">
                    <mxGeometry x="65" y="-591" width="10" height="10" as="geometry"/>
                </mxCell>
                <mxCell id="282" value="" style="rounded=0;orthogonalLoop=1;jettySize=auto;html=1;endArrow=none;endFill=0;sketch=0;sourcePerimeterSpacing=0;targetPerimeterSpacing=0;fontColor=#FFFFFF;exitX=0;exitY=0.25;exitDx=0;exitDy=0;" parent="1" source="112" target="284" edge="1">
                    <mxGeometry relative="1" as="geometry">
                        <mxPoint x="461" y="-306" as="sourcePoint"/>
                    </mxGeometry>
                </mxCell>
                <mxCell id="283" value="" style="rounded=0;orthogonalLoop=1;jettySize=auto;html=1;endArrow=halfCircle;endFill=0;entryX=0.5;entryY=0.5;endSize=6;strokeWidth=1;sketch=0;fontColor=#FFFFFF;exitX=0.25;exitY=1;exitDx=0;exitDy=0;" parent="1" source="147" target="284" edge="1">
                    <mxGeometry relative="1" as="geometry">
                        <mxPoint x="457" y="-350" as="sourcePoint"/>
                    </mxGeometry>
                </mxCell>
                <mxCell id="284" value="" style="ellipse;whiteSpace=wrap;html=1;align=center;aspect=fixed;resizable=0;points=[];outlineConnect=0;sketch=0;fontColor=#FFFFFF;strokeColor=#FFFFFF;" parent="1" vertex="1">
                    <mxGeometry x="147" y="-340" width="10" height="10" as="geometry"/>
                </mxCell>
                <mxCell id="285" value="" style="endArrow=none;html=1;fontColor=#FFFFFF;entryX=1;entryY=0.5;entryDx=0;entryDy=0;exitX=0;exitY=0.5;exitDx=0;exitDy=0;exitPerimeter=0;" parent="1" source="96" target="112" edge="1">
                    <mxGeometry width="50" height="50" relative="1" as="geometry">
                        <mxPoint x="360" y="-220" as="sourcePoint"/>
                        <mxPoint x="410" y="-270" as="targetPoint"/>
                    </mxGeometry>
                </mxCell>
                <mxCell id="289" value="" style="endArrow=none;html=1;rounded=0;exitX=0.75;exitY=0;exitDx=0;exitDy=0;entryX=0.5;entryY=1;entryDx=0;entryDy=0;" parent="1" source="200" target="226" edge="1">
                    <mxGeometry width="50" height="50" relative="1" as="geometry">
                        <mxPoint x="-280" y="-467" as="sourcePoint"/>
                        <mxPoint x="-200" y="-495" as="targetPoint"/>
                    </mxGeometry>
                </mxCell>
                <mxCell id="301" value="" style="endArrow=none;html=1;fontColor=#FFFFFF;entryX=0.5;entryY=1;entryDx=0;entryDy=0;exitX=0.5;exitY=0;exitDx=0;exitDy=0;" parent="1" source="117" target="149" edge="1">
                    <mxGeometry width="50" height="50" relative="1" as="geometry">
                        <mxPoint x="-1070" y="-370" as="sourcePoint"/>
                        <mxPoint x="-1020" y="-420" as="targetPoint"/>
                    </mxGeometry>
                </mxCell>
                <mxCell id="302" value="" style="endArrow=none;html=1;fontColor=#FFFFFF;entryX=0.5;entryY=1;entryDx=0;entryDy=0;exitX=0.5;exitY=0;exitDx=0;exitDy=0;" parent="1" source="149" target="143" edge="1">
                    <mxGeometry width="50" height="50" relative="1" as="geometry">
                        <mxPoint x="-1050" y="-440" as="sourcePoint"/>
                        <mxPoint x="-1000" y="-490" as="targetPoint"/>
                    </mxGeometry>
                </mxCell>
                <mxCell id="303" value="" style="endArrow=none;html=1;fontColor=#FFFFFF;entryX=0;entryY=0.75;entryDx=0;entryDy=0;exitX=0.5;exitY=1;exitDx=0;exitDy=0;rounded=0;" parent="1" source="175" target="163" edge="1">
                    <mxGeometry width="50" height="50" relative="1" as="geometry">
                        <mxPoint x="-840" y="-430" as="sourcePoint"/>
                        <mxPoint x="-790" y="-480" as="targetPoint"/>
                        <Array as="points">
                            <mxPoint x="-900" y="-457"/>
                        </Array>
                    </mxGeometry>
                </mxCell>
                <mxCell id="304" value="" style="endArrow=none;html=1;fontColor=#FFFFFF;exitX=0.75;exitY=0;exitDx=0;exitDy=0;entryX=0;entryY=0.5;entryDx=0;entryDy=0;rounded=0;" parent="1" source="163" target="129" edge="1">
                    <mxGeometry width="50" height="50" relative="1" as="geometry">
                        <mxPoint x="-680" y="-470" as="sourcePoint"/>
                        <mxPoint x="-630" y="-500" as="targetPoint"/>
                        <Array as="points">
                            <mxPoint x="-667" y="-499"/>
                        </Array>
                    </mxGeometry>
                </mxCell>
                <mxCell id="305" value="" style="endArrow=none;html=1;fontColor=#FFFFFF;entryX=0.534;entryY=1.002;entryDx=0;entryDy=0;entryPerimeter=0;exitX=0.5;exitY=0;exitDx=0;exitDy=0;" parent="1" source="147" target="77" edge="1">
                    <mxGeometry width="50" height="50" relative="1" as="geometry">
                        <mxPoint x="220" y="-400" as="sourcePoint"/>
                        <mxPoint x="270" y="-450" as="targetPoint"/>
                    </mxGeometry>
                </mxCell>
                <UserObject label="positionstack" lucidchartObjectId="QDQ.MSSu0BSL" id="306">
                    <mxCell style="html=1;overflow=block;blockSpacing=1;whiteSpace=wrap;shape=component;align=left;spacingLeft=36;fontSize=16.7;fontColor=#FFFFFF;spacing=0;strokeColor=#5e5e5e;strokeOpacity=100;rounded=1;absoluteArcSize=1;arcSize=9;strokeWidth=2.3;" parent="1" vertex="1">
                        <mxGeometry x="-413" y="-1100" width="149" height="87" as="geometry"/>
                    </mxCell>
                </UserObject>
                <mxCell id="363" value="" style="html=1;dropTarget=0;fontSize=13;align=center;spacing=3.8;strokeColor=#5e5e5e;strokeOpacity=100;rounded=1;absoluteArcSize=1;arcSize=9;strokeWidth=2.3;" parent="1" vertex="1">
                    <mxGeometry x="-508.75" y="-320" width="248.75" height="210" as="geometry"/>
                </mxCell>
                <mxCell id="364" value="" style="shape=component;jettyWidth=8;jettyHeight=4;" parent="363" vertex="1">
                    <mxGeometry x="1" width="15" height="15" relative="1" as="geometry">
                        <mxPoint x="-20" y="5" as="offset"/>
                    </mxGeometry>
                </mxCell>
                <UserObject label="Mail Service" lucidchartObjectId="TYQ.1-TCLOCC" id="310">
                    <mxCell style="html=1;overflow=block;blockSpacing=1;whiteSpace=wrap;shape=component;align=left;spacingLeft=36;fontSize=16.7;fontColor=#FFFFFF;spacing=0;strokeColor=#5e5e5e;strokeOpacity=100;rounded=1;absoluteArcSize=1;arcSize=9;strokeWidth=2.3;" parent="1" vertex="1">
                        <mxGeometry x="-455" y="-652" width="120" height="90" as="geometry"/>
                    </mxCell>
                </UserObject>
                <mxCell id="312" value="" style="endArrow=none;html=1;exitX=0.25;exitY=0;exitDx=0;exitDy=0;entryX=0.625;entryY=1;entryDx=0;entryDy=0;entryPerimeter=0;" parent="1" source="200" target="310" edge="1">
                    <mxGeometry width="50" height="50" relative="1" as="geometry">
                        <mxPoint x="-310" y="-530" as="sourcePoint"/>
                        <mxPoint x="-260" y="-580" as="targetPoint"/>
                    </mxGeometry>
                </mxCell>
                <mxCell id="334" value="" style="html=1;dropTarget=0;fontSize=13;align=center;spacing=3.8;strokeColor=#5e5e5e;strokeOpacity=100;rounded=1;absoluteArcSize=1;arcSize=9;strokeWidth=2.3;container=1;collapsible=0;" parent="1" vertex="1">
                    <mxGeometry x="-140" y="-343" width="225" height="209" as="geometry"/>
                </mxCell>
                <UserObject label="[Container Docker]" lucidchartObjectId="EGQ.u1LITXUu" id="335">
                    <mxCell style="html=1;overflow=block;blockSpacing=1;whiteSpace=wrap;fontSize=16.7;fontColor=#333333;fontStyle=1;align=center;spacing=0;fillColor=#ffffff;strokeWidth=1.5;strokeColor=none;" parent="334" vertex="1">
                        <mxGeometry x="22" y="14" width="180" height="45" as="geometry"/>
                    </mxCell>
                </UserObject>
                <UserObject label="PostgreSQL Database" lucidchartObjectId="VoQ.apwIIPWM" id="336">
                    <mxCell style="shape=cylinder3;whiteSpace=wrap;html=1;boundedLbl=1;backgroundOutline=1;size=15;fontFamily=Helvetica;fontSize=16.7;fontColor=#FFFFFF;align=center;strokeColor=#5e5e5e;strokeWidth=2.3;fillColor=#232f3e;" parent="334" vertex="1">
                        <mxGeometry x="77.5" y="70" width="69" height="91" as="geometry"/>
                    </mxCell>
                </UserObject>
                <mxCell id="337" value="" style="shape=component;jettyWidth=8;jettyHeight=4;" parent="334" vertex="1">
                    <mxGeometry x="1" width="15" height="15" relative="1" as="geometry">
                        <mxPoint x="-20" y="5" as="offset"/>
                    </mxGeometry>
                </mxCell>
                <mxCell id="340" value="" style="rounded=0;orthogonalLoop=1;jettySize=auto;html=1;endArrow=none;endFill=0;sketch=0;sourcePerimeterSpacing=0;targetPerimeterSpacing=0;fontColor=#FFFFFF;exitX=1;exitY=0.25;exitDx=0;exitDy=0;entryX=0;entryY=0.5;entryDx=0;entryDy=0;entryPerimeter=0;" parent="1" source="338" target="336" edge="1">
                    <mxGeometry relative="1" as="geometry">
                        <mxPoint x="111" y="-299" as="sourcePoint"/>
                    </mxGeometry>
                </mxCell>
                <UserObject label="" lucidchartObjectId="MSQ.1bBkWNoG" id="362">
                    <mxCell style="html=1;overflow=block;blockSpacing=1;whiteSpace=wrap;fontSize=13;align=center;spacing=3.8;strokeColor=#5e5e5e;strokeOpacity=100;rounded=1;absoluteArcSize=1;arcSize=0;strokeWidth=2.3;" parent="1" vertex="1">
                        <mxGeometry x="384" y="-584" width="30" height="30" as="geometry"/>
                    </mxCell>
                </UserObject>
                <mxCell id="88" value="" style="html=1;dropTarget=0;fontSize=13;align=center;spacing=3.8;strokeColor=#5e5e5e;strokeOpacity=100;rounded=1;absoluteArcSize=1;arcSize=9;strokeWidth=2.3;container=1;collapsible=0;" parent="1" vertex="1">
                    <mxGeometry x="-470" y="-273" width="195" height="153" as="geometry"/>
                </mxCell>
                <UserObject label="OAuth Internal API" lucidchartObjectId="RAQ.dgPogVAI" id="89">
                    <mxCell style="html=1;overflow=block;blockSpacing=1;whiteSpace=wrap;fontSize=16.7;fontColor=#333333;fontStyle=1;align=center;spacing=0;fillColor=#ffffff;strokeWidth=1.5;strokeColor=none;" parent="88" vertex="1">
                        <mxGeometry width="180" height="41.727272727272734" as="geometry"/>
                    </mxCell>
                </UserObject>
                <mxCell id="90" value="" style="shape=component;jettyWidth=8;jettyHeight=4;" parent="88" vertex="1">
                    <mxGeometry x="1" width="15" height="15" relative="1" as="geometry">
                        <mxPoint x="-20" y="5" as="offset"/>
                    </mxGeometry>
                </mxCell>
                <mxCell id="91" value="Auth" style="html=1;overflow=block;blockSpacing=1;whiteSpace=wrap;shape=component;align=left;spacingLeft=36;fontSize=16.7;fontColor=#FFFFFF;spacing=0;strokeColor=#5e5e5e;strokeOpacity=100;rounded=1;absoluteArcSize=1;arcSize=9;strokeWidth=2.3;container=1;collapsible=0;" parent="1" vertex="1">
                    <mxGeometry x="-425" y="-227" width="105" height="89" as="geometry"/>
                </mxCell>
                <UserObject label="" lucidchartObjectId="mLQ.HGn_hyK." id="111">
                    <mxCell style="html=1;overflow=block;blockSpacing=1;whiteSpace=wrap;fontSize=13;align=center;spacing=3.8;strokeColor=#5e5e5e;strokeOpacity=100;rounded=1;absoluteArcSize=1;arcSize=9;strokeWidth=2.3;" parent="1" vertex="1">
                        <mxGeometry x="-485" y="-206" width="30" height="30" as="geometry"/>
                    </mxCell>
                </UserObject>
                <UserObject label="" lucidchartObjectId="vXQ.yb~cQzVh" id="154">
                    <mxCell style="html=1;overflow=block;blockSpacing=1;whiteSpace=wrap;fontSize=13;align=center;spacing=3.8;strokeColor=#5e5e5e;strokeOpacity=100;rounded=1;absoluteArcSize=1;arcSize=9;strokeWidth=2.3;" parent="1" vertex="1">
                        <mxGeometry x="-290" y="-206" width="30" height="30" as="geometry"/>
                    </mxCell>
                </UserObject>
                <mxCell id="255" value="" style="rounded=0;orthogonalLoop=1;jettySize=auto;html=1;endArrow=none;endFill=0;sketch=0;sourcePerimeterSpacing=0;targetPerimeterSpacing=0;fontColor=#FFFFFF;exitX=1;exitY=0;exitDx=0;exitDy=0;" parent="1" source="154" target="257" edge="1">
                    <mxGeometry relative="1" as="geometry">
                        <mxPoint x="-113" y="44" as="sourcePoint"/>
                    </mxGeometry>
                </mxCell>
                <mxCell id="256" value="" style="rounded=0;orthogonalLoop=1;jettySize=auto;html=1;endArrow=halfCircle;endFill=0;entryX=0.5;entryY=0.5;endSize=6;strokeWidth=1;sketch=0;fontColor=#FFFFFF;exitX=0.5;exitY=1;exitDx=0;exitDy=0;" parent="1" source="298" target="257" edge="1">
                    <mxGeometry relative="1" as="geometry">
                        <mxPoint x="-73" y="44" as="sourcePoint"/>
                    </mxGeometry>
                </mxCell>
                <mxCell id="257" value="" style="ellipse;whiteSpace=wrap;html=1;align=center;aspect=fixed;resizable=0;points=[];outlineConnect=0;sketch=0;fontColor=#FFFFFF;strokeColor=#FFFFFF;" parent="1" vertex="1">
                    <mxGeometry x="-200" y="-300" width="10" height="10" as="geometry"/>
                </mxCell>
                <UserObject label="" lucidchartObjectId="nFQ.mH_b9b4w" id="298">
                    <mxCell style="html=1;overflow=block;blockSpacing=1;whiteSpace=wrap;fontSize=13;align=center;spacing=3.8;strokeColor=#5e5e5e;strokeOpacity=100;rounded=1;absoluteArcSize=1;arcSize=9;strokeWidth=2.3;fontColor=#FFFFFF;" parent="1" vertex="1">
                        <mxGeometry x="-248" y="-373" width="30" height="30" as="geometry"/>
                    </mxCell>
                </UserObject>
                <UserObject label="" lucidchartObjectId="xLQ.PSGera.4" id="338">
                    <mxCell style="html=1;overflow=block;blockSpacing=1;whiteSpace=wrap;fontSize=13;align=center;spacing=3.8;strokeColor=#5e5e5e;strokeOpacity=100;rounded=1;absoluteArcSize=1;arcSize=9;strokeWidth=2.3;" parent="1" vertex="1">
                        <mxGeometry x="-155" y="-253" width="30" height="30" as="geometry"/>
                    </mxCell>
                </UserObject>
                <UserObject label="" lucidchartObjectId="xLQ.PSGera.4" id="357">
                    <mxCell style="html=1;overflow=block;blockSpacing=1;whiteSpace=wrap;fontSize=13;align=center;spacing=3.8;strokeColor=#5e5e5e;strokeOpacity=100;rounded=1;absoluteArcSize=1;arcSize=9;strokeWidth=2.3;" parent="1" vertex="1">
                        <mxGeometry x="-155" y="-253" width="30" height="30" as="geometry"/>
                    </mxCell>
                </UserObject>
                <mxCell id="358" value="" style="rounded=0;orthogonalLoop=1;jettySize=auto;html=1;endArrow=none;endFill=0;sketch=0;sourcePerimeterSpacing=0;targetPerimeterSpacing=0;fontColor=#FFFFFF;exitX=0;exitY=0.5;exitDx=0;exitDy=0;" parent="1" source="357" target="360" edge="1">
                    <mxGeometry relative="1" as="geometry">
                        <mxPoint x="-106" y="-299" as="sourcePoint"/>
                    </mxGeometry>
                </mxCell>
                <mxCell id="359" value="" style="rounded=0;orthogonalLoop=1;jettySize=auto;html=1;endArrow=halfCircle;endFill=0;entryX=0.5;entryY=0.5;endSize=6;strokeWidth=1;sketch=0;fontColor=#FFFFFF;exitX=1;exitY=0.75;exitDx=0;exitDy=0;" parent="1" source="154" target="360" edge="1">
                    <mxGeometry relative="1" as="geometry">
                        <mxPoint x="-110" y="-343" as="sourcePoint"/>
                    </mxGeometry>
                </mxCell>
                <mxCell id="360" value="" style="ellipse;whiteSpace=wrap;html=1;align=center;aspect=fixed;resizable=0;points=[];outlineConnect=0;sketch=0;fontColor=#FFFFFF;strokeColor=#FFFFFF;" parent="1" vertex="1">
                    <mxGeometry x="-200" y="-206" width="10" height="10" as="geometry"/>
                </mxCell>
                <UserObject label="[Container Docker]" lucidchartObjectId="RAQ.dgPogVAI" id="365">
                    <mxCell style="html=1;overflow=block;blockSpacing=1;whiteSpace=wrap;fontSize=16.7;fontColor=#333333;fontStyle=1;align=center;spacing=0;fillColor=#ffffff;strokeWidth=1.5;strokeColor=none;" parent="1" vertex="1">
                        <mxGeometry x="-510" y="-318" width="170" height="28" as="geometry"/>
                    </mxCell>
                </UserObject>
                <mxCell id="371" value="" style="html=1;dropTarget=0;fontSize=13;align=center;spacing=3.8;strokeColor=#5e5e5e;strokeOpacity=100;rounded=1;absoluteArcSize=1;arcSize=9;strokeWidth=2.3;container=1;collapsible=0;" parent="1" vertex="1">
                    <mxGeometry x="653" y="-347" width="225" height="209" as="geometry"/>
                </mxCell>
                <UserObject label="[Container Docker]" lucidchartObjectId="EGQ.u1LITXUu" id="372">
                    <mxCell style="html=1;overflow=block;blockSpacing=1;whiteSpace=wrap;fontSize=16.7;fontColor=#333333;fontStyle=1;align=center;spacing=0;fillColor=#ffffff;strokeWidth=1.5;strokeColor=none;" parent="371" vertex="1">
                        <mxGeometry x="22" y="14" width="180" height="45" as="geometry"/>
                    </mxCell>
                </UserObject>
                <UserObject label="Redis Database" lucidchartObjectId="VoQ.apwIIPWM" id="373">
                    <mxCell style="shape=cylinder3;whiteSpace=wrap;html=1;boundedLbl=1;backgroundOutline=1;size=15;fontFamily=Helvetica;fontSize=16.7;fontColor=#FFFFFF;align=center;strokeColor=#5e5e5e;strokeWidth=2.3;fillColor=#232f3e;" parent="371" vertex="1">
                        <mxGeometry x="77.5" y="70" width="69" height="91" as="geometry"/>
                    </mxCell>
                </UserObject>
                <mxCell id="374" value="" style="shape=component;jettyWidth=8;jettyHeight=4;" parent="371" vertex="1">
                    <mxGeometry x="1" width="15" height="15" relative="1" as="geometry">
                        <mxPoint x="-20" y="5" as="offset"/>
                    </mxGeometry>
                </mxCell>
                <UserObject label="" lucidchartObjectId="xLQ.PSGera.4" id="375">
                    <mxCell style="html=1;overflow=block;blockSpacing=1;whiteSpace=wrap;fontSize=13;align=center;spacing=3.8;strokeColor=#5e5e5e;strokeOpacity=100;rounded=1;absoluteArcSize=1;arcSize=9;strokeWidth=2.3;" parent="1" vertex="1">
                        <mxGeometry x="633" y="-267" width="30" height="30" as="geometry"/>
                    </mxCell>
                </UserObject>
                <mxCell id="379" value="" style="rounded=0;orthogonalLoop=1;jettySize=auto;html=1;endArrow=none;endFill=0;sketch=0;sourcePerimeterSpacing=0;targetPerimeterSpacing=0;fontColor=#FFFFFF;exitX=0;exitY=0.25;exitDx=0;exitDy=0;" parent="1" source="375" target="381" edge="1">
                    <mxGeometry relative="1" as="geometry">
                        <mxPoint x="904" y="-303" as="sourcePoint"/>
                    </mxGeometry>
                </mxCell>
                <mxCell id="380" value="" style="rounded=0;orthogonalLoop=1;jettySize=auto;html=1;endArrow=halfCircle;endFill=0;entryX=0.5;entryY=0.5;endSize=6;strokeWidth=1;sketch=0;fontColor=#FFFFFF;exitX=0.25;exitY=1;exitDx=0;exitDy=0;" parent="1" source="376" target="381" edge="1">
                    <mxGeometry relative="1" as="geometry">
                        <mxPoint x="900" y="-347" as="sourcePoint"/>
                    </mxGeometry>
                </mxCell>
                <mxCell id="381" value="" style="ellipse;whiteSpace=wrap;html=1;align=center;aspect=fixed;resizable=0;points=[];outlineConnect=0;sketch=0;fontColor=#FFFFFF;strokeColor=#FFFFFF;" parent="1" vertex="1">
                    <mxGeometry x="590" y="-337" width="10" height="10" as="geometry"/>
                </mxCell>
                <mxCell id="382" value="" style="endArrow=none;html=1;fontColor=#FFFFFF;entryX=1;entryY=0.5;entryDx=0;entryDy=0;exitX=0;exitY=0.5;exitDx=0;exitDy=0;exitPerimeter=0;" parent="1" source="373" target="375" edge="1">
                    <mxGeometry width="50" height="50" relative="1" as="geometry">
                        <mxPoint x="803" y="-217" as="sourcePoint"/>
                        <mxPoint x="853" y="-267" as="targetPoint"/>
                    </mxGeometry>
                </mxCell>
                <mxCell id="391" value="" style="rounded=0;orthogonalLoop=1;jettySize=auto;html=1;endArrow=none;endFill=0;sketch=0;sourcePerimeterSpacing=0;targetPerimeterSpacing=0;fontColor=#FFFFFF;exitX=0;exitY=0.25;exitDx=0;exitDy=0;" parent="1" source="390" target="393" edge="1">
                    <mxGeometry relative="1" as="geometry">
                        <mxPoint x="794" y="-620" as="sourcePoint"/>
                    </mxGeometry>
                </mxCell>
                <mxCell id="392" value="" style="rounded=0;orthogonalLoop=1;jettySize=auto;html=1;endArrow=halfCircle;endFill=0;entryX=0.5;entryY=0.5;endSize=6;strokeWidth=1;sketch=0;fontColor=#FFFFFF;exitX=1;exitY=0.5;exitDx=0;exitDy=0;" parent="1" source="362" target="393" edge="1">
                    <mxGeometry relative="1" as="geometry">
                        <mxPoint x="572.5" y="-704" as="sourcePoint"/>
                    </mxGeometry>
                </mxCell>
                <mxCell id="393" value="" style="ellipse;whiteSpace=wrap;html=1;align=center;aspect=fixed;resizable=0;points=[];outlineConnect=0;sketch=0;fontColor=#FFFFFF;strokeColor=#FFFFFF;" parent="1" vertex="1">
                    <mxGeometry x="470" y="-581" width="10" height="10" as="geometry"/>
                </mxCell>
                <mxCell id="394" value="client" style="text;html=1;align=center;verticalAlign=middle;resizable=0;points=[];autosize=1;strokeColor=none;fillColor=none;" parent="1" vertex="1">
                    <mxGeometry x="-1420" y="-500" width="40" height="20" as="geometry"/>
                </mxCell>
                <mxCell id="395" value="" style="html=1;dropTarget=0;fontSize=13;align=center;spacing=3.8;strokeColor=#5e5e5e;strokeOpacity=100;rounded=1;absoluteArcSize=1;arcSize=9;strokeWidth=2.3;" parent="1" vertex="1">
                    <mxGeometry x="520" y="-740" width="350" height="340" as="geometry"/>
                </mxCell>
                <mxCell id="396" value="" style="shape=component;jettyWidth=8;jettyHeight=4;" parent="395" vertex="1">
                    <mxGeometry x="1" width="15" height="15" relative="1" as="geometry">
                        <mxPoint x="-20" y="5" as="offset"/>
                    </mxGeometry>
                </mxCell>
                <mxCell id="366" value="" style="html=1;dropTarget=0;fontSize=13;align=center;spacing=3.8;strokeColor=#5e5e5e;strokeOpacity=100;rounded=1;absoluteArcSize=1;arcSize=9;strokeWidth=2.3;" parent="1" vertex="1">
                    <mxGeometry x="540" y="-702" width="303" height="270" as="geometry"/>
                </mxCell>
                <mxCell id="367" value="" style="shape=component;jettyWidth=8;jettyHeight=4;" parent="366" vertex="1">
                    <mxGeometry x="1" width="15" height="15" relative="1" as="geometry">
                        <mxPoint x="-20" y="5" as="offset"/>
                    </mxGeometry>
                </mxCell>
                <UserObject label="Celery workers" lucidchartObjectId="cxQ.P7ARJ7Gp" id="368">
                    <mxCell style="html=1;overflow=block;blockSpacing=1;whiteSpace=wrap;fontSize=16.7;fontColor=#333333;fontStyle=1;align=center;spacing=0;fillColor=#ffffff;strokeWidth=1.5;strokeColor=none;" parent="1" vertex="1">
                        <mxGeometry x="600" y="-702" width="180" height="45" as="geometry"/>
                    </mxCell>
                </UserObject>
                <UserObject label="Like tracking" lucidchartObjectId="xmQ.o6H7XOpQ" id="369">
                    <mxCell style="html=1;overflow=block;blockSpacing=1;whiteSpace=wrap;shape=component;align=left;spacingLeft=36;fontSize=16.7;fontColor=#FFFFFF;spacing=0;strokeColor=#5e5e5e;strokeOpacity=100;rounded=1;absoluteArcSize=1;arcSize=9;strokeWidth=2.3;" parent="1" vertex="1">
                        <mxGeometry x="555" y="-544" width="120" height="90" as="geometry"/>
                    </mxCell>
                </UserObject>
                <UserObject label="Calculos indices" lucidchartObjectId="LvQ.SK1kYf38" id="370">
                    <mxCell style="html=1;overflow=block;blockSpacing=1;whiteSpace=wrap;shape=component;align=left;spacingLeft=36;fontSize=16.7;fontColor=#FFFFFF;spacing=0;strokeColor=#5e5e5e;strokeOpacity=100;rounded=1;absoluteArcSize=1;arcSize=9;strokeWidth=2.3;" parent="1" vertex="1">
                        <mxGeometry x="555" y="-652" width="120" height="90" as="geometry"/>
                    </mxCell>
                </UserObject>
                <UserObject label="" lucidchartObjectId="TYQ.1-TCLOCC" id="377">
                    <mxCell style="html=1;overflow=block;blockSpacing=1;whiteSpace=wrap;shape=component;align=left;spacingLeft=36;fontSize=16.7;fontColor=#FFFFFF;spacing=0;strokeColor=#5e5e5e;strokeOpacity=100;rounded=1;absoluteArcSize=1;arcSize=9;strokeWidth=2.3;" parent="1" vertex="1">
                        <mxGeometry x="694" y="-547" width="120" height="90" as="geometry"/>
                    </mxCell>
                </UserObject>
                <mxCell id="383" value="" style="endArrow=none;html=1;fontColor=#FFFFFF;entryX=0.534;entryY=1.002;entryDx=0;entryDy=0;entryPerimeter=0;exitX=0.5;exitY=0;exitDx=0;exitDy=0;" parent="1" source="376" target="366" edge="1">
                    <mxGeometry width="50" height="50" relative="1" as="geometry">
                        <mxPoint x="663" y="-397" as="sourcePoint"/>
                        <mxPoint x="713" y="-447" as="targetPoint"/>
                    </mxGeometry>
                </mxCell>
                <UserObject label="" lucidchartObjectId="xLQ.PSGera.4" id="390">
                    <mxCell style="html=1;overflow=block;blockSpacing=1;whiteSpace=wrap;fontSize=13;align=center;spacing=3.8;strokeColor=#5e5e5e;strokeOpacity=100;rounded=1;absoluteArcSize=1;arcSize=15;strokeWidth=2.3;" parent="1" vertex="1">
                        <mxGeometry x="500" y="-590" width="30" height="30" as="geometry"/>
                    </mxCell>
                </UserObject>
                <UserObject label="" lucidchartObjectId="MSQ.1bBkWNoG" id="376">
                    <mxCell style="html=1;overflow=block;blockSpacing=1;whiteSpace=wrap;fontSize=13;align=center;spacing=3.8;strokeColor=#5e5e5e;strokeOpacity=100;rounded=1;absoluteArcSize=1;arcSize=9;strokeWidth=2.3;" parent="1" vertex="1">
                        <mxGeometry x="675" y="-417" width="30" height="30" as="geometry"/>
                    </mxCell>
                </UserObject>
                <UserObject label="[Container Docker]" lucidchartObjectId="BvQ.S7S5D1Hz" id="397">
                    <mxCell style="html=1;overflow=block;blockSpacing=1;whiteSpace=wrap;fontSize=16.7;fontColor=#333333;fontStyle=1;align=center;spacing=0;fillColor=#ffffff;strokeWidth=1.5;strokeColor=none;" parent="1" vertex="1">
                        <mxGeometry x="525" y="-729.5" width="165" height="19.5" as="geometry"/>
                    </mxCell>
                </UserObject>
                <UserObject label="[AWS API Gateway]" lucidchartObjectId="BvQ.S7S5D1Hz" id="398">
                    <mxCell style="html=1;overflow=block;blockSpacing=1;whiteSpace=wrap;fontSize=16.7;fontColor=#333333;fontStyle=1;align=center;spacing=0;fillColor=#ffffff;strokeWidth=1.5;strokeColor=none;" parent="1" vertex="1">
                        <mxGeometry x="-462" y="-722" width="125" height="45" as="geometry"/>
                    </mxCell>
                </UserObject>
            </root>
        </mxGraphModel>
    </diagram>
</mxfile>